<svg xmlns="http://www.w3.org/2000/svg" viewBox="0 0 244.71 27.9"><defs><style>.cls-1{fill:#8e6244;}.cls-2{fill:#a87451;}.cls-3{fill:#ff9463;}.cls-4,.cls-6{fill:#8cc63e;}.cls-5,.cls-7{fill:#7fb539;}.cls-15,.cls-5,.cls-6,.cls-9{fill-rule:evenodd;}.cls-8{fill:#d97448;}.cls-9{fill:#77a836;}.cls-10{fill:#947151;}.cls-11{fill:#64892f;}.cls-12{fill:#ffe62e;}.cls-13{fill:#f55;}.cls-14{fill:#ceff80;}.cls-15{fill:#3e4347;}.cls-16{fill:#628c2c;}.cls-17{fill:#f29a2e;}.cls-18{fill:#ffc44a;}</style></defs><g id="Calque_2" data-name="Calque 2"><g id="Calque_1-2" data-name="Calque 1"><path class="cls-1" d="M15.05,3.3c0-1.07-1.58-1.27-1.58-.23,0,1.23-.63,1.67-.63,2.33,0,.82,1.86,1,1.86.1S15.05,4.75,15.05,3.3Z"/><path class="cls-2" d="M14.46,3.16c1.28,0-1.07-1.67-1.07-.13,0,1.23-.88,1.8-.5,2.6C13.72,4.59,13.1,3.16,14.46,3.16Z"/><path class="cls-3" d="M1.14,14.26c0-7.53,6.14-12.13,12.67-8.61A9.52,9.52,0,0,1,27.9,14.26c0,6.77-3.7,10.56-8.36,12.29a23.15,23.15,0,0,1-6.62,1.35c-1.31,0-1.28-.68-2.53-1.06C5.33,25.34,1.14,21.46,1.14,14.26Z"/><path class="cls-4" d="M14.15,3A.17.17,0,0,1,14,2.86c-.93-1.38-1.83-1.06-1.83-1.06l-.1-.48S13.22.93,14.3,2.54a.32.32,0,0,1,0,.35A.18.18,0,0,1,14.15,3Z"/><path class="cls-5" d="M10.37,0C5.73-.42,1,4.93,1,4.93A12.68,12.68,0,0,1,7,4.29c2.85.6,5.32-2.79,5.32-2.79A2.75,2.75,0,0,0,10.37,0Z"/><path class="cls-6" d="M6,3.73A19.76,19.76,0,0,1,0,8.85s6.91.72,11.12-4.11a5.79,5.79,0,0,0,1.22-3.32A6.23,6.23,0,0,0,6,3.73Z"/><path class="cls-7" d="M12.34,1.42a8.09,8.09,0,0,0-1.54.47,10.68,10.68,0,0,0-1.63.86,31,31,0,0,0-3,2.38,23.9,23.9,0,0,1-3,2.21A19.24,19.24,0,0,1,0,8.85a11.67,11.67,0,0,0,1.55-.51,16.05,16.05,0,0,0,1.63-.78A19.88,19.88,0,0,0,6.3,5.31c1-.83,1.92-1.67,2.93-2.37A11.76,11.76,0,0,1,12.34,1.42Z"/><path class="cls-8" d="M17.89,14.82a12.54,12.54,0,0,1-.32,4.89A9.1,9.1,0,0,1,14.85,24,7.5,7.5,0,0,0,19,20.17a9.53,9.53,0,0,0,.8-5.3,12.72,12.72,0,0,0-2-5.37A11.27,11.27,0,0,0,13,5.26a13.57,13.57,0,0,1,3.44,4.59A16.41,16.41,0,0,1,17.89,14.82Z"/><path class="cls-9" d="M84.43,1.23c-3.36-1.51-5.69,3.19-5.69,3.19s1,2.2,2.48,2.67C86.59,8.72,91.28,1.5,91.28,1.5A10.29,10.29,0,0,1,84.43,1.23Z"/><path class="cls-10" d="M75.51,2.73c-.18,0-.23.68-.05.72a5.83,5.83,0,0,1,4.27,3.26c.14.57,1,0,.69-.73A7.23,7.23,0,0,0,75.51,2.73Z"/><path class="cls-11" d="M98.23,26a.83.83,0,0,0,1,0,.94.94,0,0,0,0-1c-.12-.13-.44,0-.71.27S98.1,25.84,98.23,26Z"/><path class="cls-12" d="M79.38,7.93c-.24-.32.06-1.09.7-1.75s1.39-1,1.7-.74c3.9-2.53,9.87-1.35,14.15,3.08,3.82,4,5.14,9.31,3.63,13.29.76,1,.49,2.65-.67,3.85s-2.77,1.47-3.72.68c-3.84,1.56-9,.2-12.82-3.76C78.07,18.15,76.93,12,79.38,7.93Z"/><path class="cls-6" d="M80,6.56c-.68-2-3.54-3.08-3.54-3.08s-5.87,3.31-3.75,7.6A13.71,13.71,0,0,1,73.48,20S82.42,13.47,80,6.56Z"/><path class="cls-7" d="M76.48,3.48a8.55,8.55,0,0,0-1.07,1.81,8.29,8.29,0,0,0-.57,2.12,19.79,19.79,0,0,0,.08,4.36,16.62,16.62,0,0,1-.1,4.23,15.83,15.83,0,0,1-1.34,4,13.18,13.18,0,0,0,1-1.85,12.75,12.75,0,0,0,.68-2.06,14.36,14.36,0,0,0,.22-4.38,26.65,26.65,0,0,1-.2-4.26A9.68,9.68,0,0,1,76.48,3.48Z"/><path class="cls-13" d="M144.58,22.45a20.43,20.43,0,0,0,27.81,0L158.47,0Z"/><path class="cls-14" d="M146.38,19.55l-.53.72c5.51,4.84,17.16,6.75,25.27,0l-.52-.71A20.34,20.34,0,0,1,146.38,19.55Z"/><path class="cls-4" d="M145.86,20.27l-1.32,2.14a20.42,20.42,0,0,0,27.9,0l-1.32-2.14A20.58,20.58,0,0,1,145.86,20.27Z"/><path class="cls-15" d="M151.05,17a6.7,6.7,0,0,1,1.09-2.14,7.25,7.25,0,0,1,1.15,2.2,1.05,1.05,0,0,1-1.1,1.06A1.16,1.16,0,0,1,151.05,17Z"/><path class="cls-15" d="M156.82,19.12a6.9,6.9,0,0,1,1.1-2.14,7.36,7.36,0,0,1,1.15,2.2A1.07,1.07,0,0,1,158,20.24,1.17,1.17,0,0,1,156.82,19.12Z"/><path class="cls-15" d="M160.59,13.73a6.7,6.7,0,0,1,1.09-2.14,7.49,7.49,0,0,1,1.15,2.2,1.05,1.05,0,0,1-1.11,1.06A1.14,1.14,0,0,1,160.59,13.73Z"/><path class="cls-15" d="M164.41,18.82a6.7,6.7,0,0,1,1.09-2.14,7.41,7.41,0,0,1,1.15,2.19,1.06,1.06,0,0,1-1.11,1.07A1.15,1.15,0,0,1,164.41,18.82Z"/><path class="cls-15" d="M156.24,8.78a6.69,6.69,0,0,1,1.1-2.14,7.2,7.2,0,0,1,1.14,2.19,1.06,1.06,0,0,1-1.1,1.07A1.17,1.17,0,0,1,156.24,8.78Z"/><path class="cls-11" d="M156.73,24.52v3.31a21.65,21.65,0,0,0,3.51,0V24.51A21.65,21.65,0,0,1,156.73,24.52Z"/><path class="cls-11" d="M148.51,22l-1,2.72a19.27,19.27,0,0,0,3.13,1.61l1.08-2.9A19.43,19.43,0,0,1,148.51,22Z"/><path class="cls-11" d="M168.45,22a19.8,19.8,0,0,1-3.19,1.43l1.08,2.9a20.24,20.24,0,0,0,3.13-1.63Z"/><path class="cls-16" d="M229.91,4.42l.09-.57a4.75,4.75,0,0,0,3.63.33l.12.37A5.36,5.36,0,0,1,229.91,4.42Z"/><ellipse class="cls-17" cx="228.84" cy="16.79" rx="12.04" ry="11.11"/><path class="cls-5" d="M226.08,7.85c.08-.55,2.18-.25,2.18-.25s-.09-1.39.26-1.48,1,1.33,1,1.33,1.7-.67,1.9-.23-1.17,1.2-1.17,1.2,1.77,1.42,1.42,1.89-2.29-1-2.29-1-1.19,2-1.73,1.76.42-2.33.42-2.33S226,8.4,226.08,7.85Z"/><polyline class="cls-18" points="224.53 12.6 224.17 12.97 224.53 13.34 224.89 12.97 224.53 12.6"/><polyline class="cls-18" points="221.73 12.39 221.37 12.76 221.73 13.13 222.09 12.76 221.73 12.39"/><polyline class="cls-18" points="219.48 12.39 219.12 12.76 219.48 13.13 219.84 12.76 219.48 12.39"/><polyline class="cls-18" points="226.08 14.15 225.72 14.52 226.08 14.89 226.44 14.52 226.08 14.15"/><polyline class="cls-18" points="224.53 16.05 224.17 16.42 224.53 16.79 224.89 16.42 224.53 16.05"/><polyline class="cls-18" points="222.09 16.05 221.73 16.42 222.09 16.79 222.45 16.42 222.09 16.05"/><polyline class="cls-18" points="219.31 16.26 218.95 16.63 219.31 17 219.67 16.63 219.31 16.26"/><polyline class="cls-18" points="223.31 14.24 222.95 14.61 223.31 14.98 223.67 14.61 223.31 14.24"/><polyline class="cls-18" points="220.87 14.24 220.51 14.61 220.87 14.98 221.24 14.61 220.87 14.24"/><polyline class="cls-18" points="218.44 14.24 218.08 14.61 218.44 14.98 218.8 14.61 218.44 14.24"/><polyline class="cls-18" points="225.83 10.96 225.47 11.33 225.83 11.7 226.19 11.33 225.83 10.96"/><polyline class="cls-18" points="223.14 10.96 222.78 11.33 223.14 11.7 223.5 11.33 223.14 10.96"/><polyline class="cls-18" points="220.51 10.59 220.16 10.96 220.51 11.33 220.87 10.96 220.51 10.59"/><polyline class="cls-18" points="224.81 9.53 224.44 9.9 224.81 10.27 225.16 9.9 224.81 9.53"/><polyline class="cls-18" points="223.78 8.13 223.42 8.5 223.78 8.87 224.14 8.5 223.78 8.13"/><polyline class="cls-18" points="222.09 9.16 221.73 9.53 222.09 9.9 222.45 9.53 222.09 9.16"/><polyline class="cls-18" points="223.31 17.91 222.95 18.28 223.31 18.65 223.67 18.28 223.31 17.91"/><polyline class="cls-18" points="220.74 17.91 220.38 18.28 220.74 18.65 221.1 18.28 220.74 17.91"/><path class="cls-6" d="M237.92,2a9,9,0,0,0,6.79,1.81s-6.11,7.67-11.16,4.53C228.82,5.35,233.55-1.7,237.92,2Z"/><path class="cls-16" d="M230.06.39l-.88.43c1.37,4.33-.31,6.75-.72,7.14-.57.55.75,1.08,1.35.28C229.93,8.08,231.66,5.49,230.06.39Z"/><path class="cls-4" d="M229.63,0c.25,0,.46.28.46.63s-.21.62-.46.62a.56.56,0,0,1-.47-.62C229.16.28,229.37,0,229.63,0Z"/><path class="cls-7" d="M231.61,4.55a6.25,6.25,0,0,1,1.52-.78,5.52,5.52,0,0,1,1.7-.29,13.39,13.39,0,0,1,3.36.62,10.15,10.15,0,0,0,3.27.43,10.41,10.41,0,0,0,3.25-.77,9.54,9.54,0,0,1-1.55.73,8,8,0,0,1-1.67.39,9.13,9.13,0,0,1-3.41-.34,16.46,16.46,0,0,0-3.25-.71A6.43,6.43,0,0,0,231.61,4.55Z"/></g></g></svg>