<svg xmlns="http://www.w3.org/2000/svg" viewBox="0 0 244.12 28.13"><defs><style>.cls-1{fill:#f2eacc;}.cls-2{fill:#9c6525;}.cls-3{fill:#fee801;}.cls-4{fill:#e5c900;}.cls-5{fill:#f5f5f5;}.cls-6{fill:#42ade2;}.cls-7{fill:#9e7658;}.cls-8{fill:#89664c;}.cls-9{fill:#b2d921;}.cls-10{fill:#c7e755;}.cls-11{fill:#ecffad;}.cls-12{fill:#3e4347;}.cls-13{fill:#83bf4f;}.cls-13,.cls-15{fill-rule:evenodd;}.cls-14{fill:#947151;}.cls-15{fill:#ef4d3c;}.cls-16{fill:#64892f;}.cls-17{fill:#b46137;}.cls-18{fill:#e7a74f;}.cls-19{fill:#84b234;}.cls-20{fill:#8cc63e;}</style></defs><g id="Calque_2" data-name="Calque 2"><g id="Calque_1-2" data-name="Calque 1"><path class="cls-1" d="M20.9,18.83c-3,4.39-7.87.56-4.83-3.83,5.52-5.3,5.38-12.86,7.47-13.12C26.17,1.57,28.12,9.38,20.9,18.83Z"/><path class="cls-2" d="M1.62,18.16,0,19.54a13,13,0,0,0,1.35,1.78A13.4,13.4,0,0,0,3.66,19,11.47,11.47,0,0,1,1.62,18.16Z"/><path class="cls-3" d="M15.1,8.5A5.91,5.91,0,0,0,9.53,10c3.18-1.7,7.9,2.17,7.21,3.4a11.34,11.34,0,0,1-12,5.84c-.36-.07-.7-.16-1-.26a13.4,13.4,0,0,1-2.31,2.33C8,24.61,15.85,22.67,19.2,16,20.56,13.34,18,9.23,15.1,8.5Z"/><path class="cls-4" d="M28.12,19.31a6.22,6.22,0,0,0-3.83-3.95A4.82,4.82,0,0,0,19.2,16,11.93,11.93,0,0,1,6.55,22.17a11.55,11.55,0,0,1-4.2-1.72c-.33.31-.68.61-1,.87a12.5,12.5,0,0,0,7,4,12.29,12.29,0,0,0,11.44-3.89C24.16,15.88,28.12,19.31,28.12,19.31Z"/><path class="cls-5" d="M15.26,18.33c1.37-.86,2.07-2.3,1.56-3.22a1.38,1.38,0,0,0-.77-.61l-.25.36a1,1,0,0,1,.56.47c.42.74-.15,1.92-1.26,2.62s-2.28.65-2.73,0c-.17.11-.35.2-.53.3,0,0,0,0,0,0C12.36,19.15,13.89,19.19,15.26,18.33Z"/><path class="cls-6" d="M12.37,17.91c.45.69,1.64.72,2.73,0s1.68-1.88,1.26-2.62a1,1,0,0,0-.56-.47A12,12,0,0,1,12.37,17.91Z"/><path class="cls-3" d="M28.12,19.31c.1,2.48-1.72,6.4-4.84,6.92s3.95-9.29-.76-11.28C22.52,15,27.94,14.94,28.12,19.31Z"/><path class="cls-4" d="M15.9,8.79c-7-2.86-9.32,5.93-5.84,4.88C11.32,13.3,12,10.71,15.9,8.79Z"/><path class="cls-7" d="M88.71,28.13C66.43,28.13,66.43,0,88.71,0Z"/><ellipse class="cls-8" cx="88.71" cy="14.06" rx="11.41" ry="14.06"/><ellipse class="cls-9" cx="88.71" cy="14.06" rx="10.75" ry="13.25"/><ellipse class="cls-10" cx="88.71" cy="14.06" rx="9.4" ry="11.58"/><path class="cls-9" d="M96.1,16.54c-.15.66-2.89,0-3.16.56s1.55,3.18,1.16,3.66-2.48-1.8-3-1.47.06,3.72-.47,3.89-1.42-3.09-2-3.09-1.45,3.25-2,3.07,0-3.56-.46-3.89-2.59,1.91-3,1.44,1.46-3.07,1.19-3.65-3,.07-3.16-.59,2.51-1.75,2.51-2.43-2.64-1.78-2.49-2.45,2.89,0,3.15-.56-1.54-3.19-1.16-3.66,2.49,1.79,3,1.46,0-3.71.48-3.89S88.18,8,88.73,8s1.45-3.25,2-3.07,0,3.56.46,3.89,2.58-1.9,3-1.43S92.69,10.48,93,11.07s3-.07,3.15.58-2.5,1.75-2.5,2.43S96.25,15.87,96.1,16.54Z"/><polygon class="cls-11" points="94.96 14.06 91.18 14.88 94.12 17.91 90.52 16.28 91.84 20.72 89.38 17.1 88.71 21.75 88.05 17.1 85.59 20.72 86.91 16.28 83.31 17.91 86.25 14.88 82.47 14.06 86.25 13.25 83.31 10.21 86.91 11.84 85.59 7.4 88.05 11.03 88.71 6.37 89.38 11.03 91.84 7.4 90.52 11.84 94.12 10.21 91.18 13.25 94.96 14.06"/><polygon class="cls-12" points="87.42 7.21 87.22 8.34 87.83 9.23 88.03 8.1 87.42 7.21"/><polygon class="cls-12" points="86.23 5.63 86.02 6.76 86.63 7.65 86.84 6.51 86.23 5.63"/><polygon class="cls-12" points="90.47 6.96 89.67 7.58 89.59 8.74 90.39 8.12 90.47 6.96"/><polygon class="cls-12" points="90 20.91 90.21 19.78 89.6 18.89 89.39 20.03 90 20.91"/><polygon class="cls-12" points="91.2 22.5 91.41 21.36 90.79 20.48 90.58 21.61 91.2 22.5"/><polygon class="cls-12" points="86.96 21.16 87.76 20.54 87.83 19.38 87.04 20 86.96 21.16"/><polygon class="cls-12" points="94.27 12.47 93.35 12.21 92.64 12.97 93.56 13.22 94.27 12.47"/><polygon class="cls-12" points="95.56 11 94.64 10.75 93.92 11.5 94.84 11.76 95.56 11"/><polygon class="cls-12" points="94.47 16.22 93.97 15.24 93.03 15.14 93.53 16.13 94.47 16.22"/><polygon class="cls-12" points="83.15 15.65 84.07 15.91 84.79 15.16 83.87 14.9 83.15 15.65"/><polygon class="cls-12" points="81.87 17.12 82.79 17.38 83.51 16.63 82.59 16.37 81.87 17.12"/><polygon class="cls-12" points="82.95 11.9 83.46 12.89 84.4 12.98 83.89 12 82.95 11.9"/><polygon class="cls-12" points="93.17 9.67 92.25 9.93 91.87 10.99 92.79 10.73 93.17 9.67"/><polygon class="cls-12" points="93.81 7.66 92.89 7.92 92.51 8.98 93.43 8.72 93.81 7.66"/><polygon class="cls-12" points="83.61 20.46 84.53 20.21 84.92 19.15 84 19.4 83.61 20.46"/><polygon class="cls-12" points="85.15 8.57 85.36 9.7 86.22 10.18 86.01 9.04 85.15 8.57"/><polygon class="cls-12" points="83.52 7.78 83.73 8.91 84.59 9.38 84.38 8.25 83.52 7.78"/><polygon class="cls-12" points="93.91 20.35 93.7 19.21 92.84 18.74 93.05 19.87 93.91 20.35"/><path class="cls-13" d="M157.8,1.36c.53,1.16-.25,5.09-.25,5.09S154,4.38,153.5,3.22a2.26,2.26,0,0,1,1.19-3A2.37,2.37,0,0,1,157.8,1.36Z"/><path class="cls-14" d="M158.68,6.71h-1.23a5.23,5.23,0,0,1,5.63-5.44v1.2A4.25,4.25,0,0,0,158.68,6.71Z"/><path class="cls-15" d="M158.06,6.49c-3.4-3.49-13.59-3.64-13.59,6.32,0,6.29,7.4,15.32,10.62,15.32,1.47,0,2-.92,2.85-.92s1.14.91,3,.91c3.23,0,10.71-9,10.71-15.31C171.66,2.85,161.46,3,158.06,6.49Z"/><path class="cls-16" d="M223,4.33c2.29,2.29,2.66,3.85,1.92,4.59s-2.3.37-4.59-1.92A20,20,0,0,1,216.61.61,20,20,0,0,1,223,4.33Z"/><path class="cls-16" d="M226.18,5.68c1.37,2.94,1.17,4.53.23,5s-2.28-.43-3.66-3.37A20,20,0,0,1,221.44,0,19.91,19.91,0,0,1,226.18,5.68Z"/><path class="cls-16" d="M229,9c-1.35,3-2.68,3.83-3.63,3.4s-1.15-2,.2-5a19.92,19.92,0,0,1,4.69-5.71A20,20,0,0,1,229,9Z"/><path class="cls-16" d="M227.68,7.48c-.19,3.24-1.11,4.54-2.15,4.48s-1.81-1.46-1.62-4.7a20,20,0,0,1,2.3-7A19.94,19.94,0,0,1,227.68,7.48Z"/><path class="cls-16" d="M230.63,10.3c-2.09,2.49-3.61,3-4.41,2.31s-.57-2.25,1.51-4.73a20,20,0,0,1,6.05-4.27A20,20,0,0,1,230.63,10.3Z"/><path class="cls-16" d="M221.68,10.18c2.94,1.37,4.53,1.17,5,.23s-.43-2.28-3.37-3.66A20,20,0,0,0,216,5.44,20.08,20.08,0,0,0,221.68,10.18Z"/><path class="cls-16" d="M225,13c2.95-1.35,3.83-2.68,3.4-3.63s-2-1.15-5,.2a19.92,19.92,0,0,0-5.71,4.69A20,20,0,0,0,225,13Z"/><path class="cls-16" d="M223.48,11.68c3.24-.19,4.54-1.11,4.48-2.15s-1.46-1.81-4.7-1.62a20,20,0,0,0-7,2.3A19.94,19.94,0,0,0,223.48,11.68Z"/><path class="cls-16" d="M226.3,14.63c2.49-2.09,3-3.61,2.31-4.41s-2.25-.57-4.73,1.51a20,20,0,0,0-4.27,6.05A20,20,0,0,0,226.3,14.63Z"/><path class="cls-17" d="M241.27,13.69c3.75,3.75,2.7,7.88-.5,11.08s-7.34,4.25-11.08.5S222.78,13.18,226,10,237.52,9.94,241.27,13.69Z"/><path class="cls-18" d="M237.12,21.12c-.46.46-1,2-.57,2.46s2-.11,2.46-.57,1-2,.57-2.46S237.57,20.66,237.12,21.12Z"/><path class="cls-18" d="M239.85,23.85c-.46.45-.86,2.17-.43,2.59s3.45-2.6,3-3S240.3,23.39,239.85,23.85Z"/><path class="cls-18" d="M231.39,15.39c-.46.46-1,2-.57,2.46s2-.11,2.46-.57,1-2,.57-2.46S231.85,14.93,231.39,15.39Z"/><path class="cls-18" d="M234.25,18.25c-.45.46-1,2-.56,2.46s2-.11,2.46-.56,1-2,.56-2.46S234.71,17.8,234.25,18.25Z"/><path class="cls-18" d="M228.64,12.64c-.45.46-1,2-.56,2.46s2-.11,2.46-.56,1-2,.56-2.46S229.1,12.19,228.64,12.64Z"/><path class="cls-18" d="M228.72,23.44c-.65.65-.47,2.72,1.68,3.26.57.15,1.64-3.49,1.22-3.91C230.83,22,229.13,23,228.72,23.44Z"/><path class="cls-18" d="M232.15,26.09c-1.64,1.63,1.1,2.68,2.2,1.58a1.79,1.79,0,0,0,.13-2C234.06,25.23,232.57,25.67,232.15,26.09Z"/><path class="cls-18" d="M232.94,22c-.45.46-1,2.39-.56,2.81s2.45,0,2.91-.47.71-2.26.29-2.68S233.4,21.57,232.94,22Z"/><path class="cls-18" d="M235.85,24.93c-.46.46-.83,2.2-.41,2.62.79.79,2.28.17,2.73-.29s.72-2.31.3-2.73S236.3,24.47,235.85,24.93Z"/><path class="cls-18" d="M230.16,19.25c-.46.45-1.1,2.27-.68,2.69s2.4-.07,2.85-.52.83-2.2.41-2.62S230.62,18.79,230.16,19.25Z"/><path class="cls-18" d="M224.71,13.72a1.94,1.94,0,0,0-.25,2.14,1.94,1.94,0,0,0,2.14-.25c.46-.45,1-2,.57-2.46S225.16,13.26,224.71,13.72Z"/><path class="cls-18" d="M224.74,16.9c-.42.42.35,3.05.77,2.63s1.15-2.19.72-2.61A1,1,0,0,0,224.74,16.9Z"/><path class="cls-18" d="M226.46,20.32c-.54.54-.65,2.91.87,3.12.58.08,1.95-3,1.52-3.42S226.88,19.9,226.46,20.32Z"/><path class="cls-18" d="M227.36,16.45c-.46.45-.86,2.21-.44,2.64s2.24.07,2.7-.39.75-2.21.33-2.64S227.82,16,227.36,16.45Z"/><path class="cls-18" d="M239.44,12.72c.65-.65,2.72-.48,3.26,1.68.15.57-3.49,1.64-3.91,1.22C238,14.83,239,13.13,239.44,12.72Z"/><path class="cls-18" d="M242.09,16.15c1.63-1.64,2.68,1.1,1.58,2.2a1.79,1.79,0,0,1-2,.13C241.23,18.05,241.67,16.57,242.09,16.15Z"/><path class="cls-18" d="M238,16.94c.46-.45,2.39-1,2.81-.56s0,2.45-.47,2.91-2.26.71-2.68.29S237.57,17.4,238,16.94Z"/><path class="cls-18" d="M240.93,19.84c.46-.45,2.2-.82,2.62-.4.79.79.17,2.28-.29,2.73s-2.31.72-2.73.3S240.47,20.3,240.93,19.84Z"/><path class="cls-18" d="M235.25,14.16c.45-.46,2.27-1.1,2.69-.68s-.06,2.4-.52,2.85-2.2.83-2.62.41S234.79,14.62,235.25,14.16Z"/><path class="cls-18" d="M229.72,8.71a1.94,1.94,0,0,1,2.14-.25,1.94,1.94,0,0,1-.25,2.14c-.45.46-2,1-2.46.57S229.26,9.16,229.72,8.71Z"/><path class="cls-18" d="M232.9,8.74c.42-.42,3,.35,2.63.77s-2.19,1.15-2.61.72A1,1,0,0,1,232.9,8.74Z"/><path class="cls-18" d="M236.32,10.46c.54-.54,2.91-.65,3.12.87.08.58-3,1.95-3.42,1.52S235.9,10.88,236.32,10.46Z"/><path class="cls-18" d="M232.45,11.36c.45-.45,2.21-.86,2.64-.44s.07,2.24-.39,2.7-2.21.75-2.64.33S232,11.82,232.45,11.36Z"/><path class="cls-19" d="M225.33,7.7c1.75,1.75,2.12,2.85,1.67,3.3s-1.55.08-3.3-1.67a18.19,18.19,0,0,1-3-4.67A18.19,18.19,0,0,1,225.33,7.7Z"/><path class="cls-19" d="M227.12,13.83c1.55-1.24,1.77-2.25,1.25-2.85s-1.59-.56-3.14.68a10.14,10.14,0,0,0-2.47,3.83A10.81,10.81,0,0,0,227.12,13.83Z"/><path class="cls-19" d="M225.09,10.39c2.18,0,3.22.55,3.39,1.27s-.62,1.31-2.8,1.34a15.63,15.63,0,0,1-5.11-1.26A11,11,0,0,1,225.09,10.39Z"/><path class="cls-19" d="M224.86,8.62C227.1,9.23,228,10,228,10.74s-1,1-3.25.39a17.76,17.76,0,0,1-4.86-2.59A13.24,13.24,0,0,1,224.86,8.62Z"/><path class="cls-19" d="M229.83,11.12c-1.24,1.55-2.25,1.77-2.85,1.25s-.56-1.59.68-3.14a10.14,10.14,0,0,1,3.83-2.47A10.81,10.81,0,0,1,229.83,11.12Z"/><path class="cls-19" d="M226.39,9.09c0,2.18.55,3.22,1.27,3.39s1.32-.62,1.34-2.8a15.63,15.63,0,0,0-1.26-5.11A11,11,0,0,0,226.39,9.09Z"/><path class="cls-19" d="M224.62,8.86C225.23,11.1,226,12,226.74,12s1-1,.39-3.25a17.76,17.76,0,0,0-2.59-4.86A13.24,13.24,0,0,0,224.62,8.86Z"/><path class="cls-20" d="M229,9.63a6.27,6.27,0,0,0-1.57-1.79,9.59,9.59,0,0,0-.56,1.7c-1-.43-2.64-1.28-2.64-1.28s.85,1.65,1.28,2.64a9.59,9.59,0,0,0-1.7.56A6.27,6.27,0,0,0,225.63,13a8.8,8.8,0,0,0-1.16,2.56,12.63,12.63,0,0,0,4.59-2.53,12.63,12.63,0,0,0,2.53-4.59A8.8,8.8,0,0,0,229,9.63Z"/></g></g></svg>