<svg xmlns="http://www.w3.org/2000/svg" viewBox="0 0 28.13 24.37"><g id="Calque_2" data-name="Calque 2"><g id="Calque_1-2" data-name="Calque 1"><path d="M20.9,17c-3,4.39-7.87.55-4.83-3.83C21.59,7.82,21.45.26,23.54,0,26.17-.31,28.12,7.51,20.9,17Z" style="fill:#f2eacc"/><path d="M1.62,16.28,0,17.66a13.11,13.11,0,0,0,1.35,1.79,13.81,13.81,0,0,0,2.31-2.34A10.77,10.77,0,0,1,1.62,16.28Z" style="fill:#9c6525"/><path d="M15.1,6.62A5.91,5.91,0,0,0,9.53,8.13c3.18-1.7,7.9,2.17,7.21,3.41a11.34,11.34,0,0,1-12,5.84,8.81,8.81,0,0,1-1-.27,13.81,13.81,0,0,1-2.31,2.34c6.6,3.29,14.5,1.34,17.85-5.29C20.56,11.46,18,7.35,15.1,6.62Z" style="fill:#fee801"/><path d="M28.12,17.43a6.24,6.24,0,0,0-3.83-3.95,4.84,4.84,0,0,0-5.09.68A11.92,11.92,0,0,1,6.55,20.3a11.56,11.56,0,0,1-4.2-1.73c-.33.31-.68.61-1,.88a12.49,12.49,0,0,0,7,4,12.29,12.29,0,0,0,11.44-3.88C24.16,14,28.12,17.43,28.12,17.43Z" style="fill:#e5c900"/><path d="M15.26,16.46c1.37-.86,2.07-2.31,1.56-3.23a1.37,1.37,0,0,0-.77-.6L15.8,13a1.09,1.09,0,0,1,.56.47c.42.75-.15,1.92-1.26,2.62s-2.28.66-2.73,0l-.53.29s0,0,0,0C12.36,17.27,13.89,17.32,15.26,16.46Z" style="fill:#f5f5f5"/><path d="M12.37,16c.45.69,1.64.71,2.73,0s1.68-1.87,1.26-2.62A1.09,1.09,0,0,0,15.8,13,11.89,11.89,0,0,1,12.37,16Z" style="fill:#42ade2"/><path d="M28.12,17.43c.1,2.49-1.72,6.4-4.84,6.92s3.95-9.29-.76-11.27C22.52,13.08,27.94,13.07,28.12,17.43Z" style="fill:#fee801"/><path d="M15.9,6.92c-7-2.87-9.32,5.92-5.84,4.88C11.32,11.42,12,8.83,15.9,6.92Z" style="fill:#e5c900"/></g></g></svg>