<svg xmlns="http://www.w3.org/2000/svg" xmlns:xlink="http://www.w3.org/1999/xlink" viewBox="0 0 216 216"><defs><style>.cls-1{fill:#fff;filter:url(#filter);}.cls-2{fill:#9e7658;}.cls-3{fill:#89664c;}.cls-4{fill:#b2d921;}.cls-5{fill:#c7e755;}.cls-6{fill:#ecffad;}.cls-7{fill:#3e4347;}</style><filter id="filter" x="0" y="0" width="216" height="216" filterUnits="userSpaceOnUse"><feOffset input="SourceAlpha"/><feGaussianBlur stdDeviation="7.82" result="blur"/><feFlood/><feComposite operator="in" in2="blur"/><feComposite in="SourceGraphic"/></filter></defs><g id="Calque_2" data-name="Calque 2"><g id="Calque_1-2" data-name="Calque 1"><circle class="cls-1" cx="107.97" cy="107.97" r="84.5"/><path class="cls-2" d="M115.47,156.73c-79.72,0-79.72-100.61,0-100.61Z"/><ellipse class="cls-3" cx="115.47" cy="106.42" rx="40.82" ry="50.31"/><ellipse class="cls-4" cx="115.47" cy="106.42" rx="38.45" ry="47.38"/><ellipse class="cls-5" cx="115.47" cy="106.42" rx="33.62" ry="41.42"/><path class="cls-4" d="M141.89,115.27c-.53,2.39-10.33,0-11.29,2s5.54,11.4,4.16,13.09-8.9-6.43-10.59-5.24.2,13.29-1.7,13.91-5.07-11-7.06-11-5.18,11.63-7.11,11,0-12.72-1.63-13.91-9.26,6.82-10.63,5.13,5.22-11,4.25-13.06S89.51,117.38,89,115s9-6.25,9-8.69-9.44-6.39-8.91-8.78,10.32,0,11.28-2-5.53-11.4-4.15-13.08,8.89,6.42,10.59,5.23-.2-13.29,1.7-13.91,5.07,11,7,11,5.18-11.63,7.12-11,0,12.73,1.63,13.91,9.26-6.82,10.62-5.12-5.21,11-4.24,13,10.78-.25,11.28,2.09-8.95,6.25-9,8.69S142.42,112.88,141.89,115.27Z"/><polygon class="cls-6" points="137.8 106.42 124.28 109.34 134.81 120.19 121.92 114.37 126.65 130.25 117.84 117.28 115.48 133.94 113.11 117.28 104.3 130.25 109.03 114.37 96.14 120.19 106.66 109.34 93.15 106.42 106.66 103.51 96.14 92.66 109.03 98.48 104.31 82.59 113.11 95.56 115.48 78.91 117.84 95.56 126.64 82.59 121.92 98.48 134.81 92.66 124.28 103.51 137.8 106.42"/><polygon class="cls-7" points="110.86 81.91 110.11 85.97 112.3 89.13 113.04 85.08 110.86 81.91"/><polygon class="cls-7" points="106.59 76.25 105.85 80.3 108.03 83.47 108.78 79.42 106.59 76.25"/><polygon class="cls-7" points="121.74 81.03 118.89 83.25 118.62 87.39 121.47 85.18 121.74 81.03"/><polygon class="cls-7" points="120.09 130.93 120.84 126.88 118.65 123.71 117.91 127.77 120.09 130.93"/><polygon class="cls-7" points="124.35 136.59 125.1 132.54 122.92 129.37 122.17 133.43 124.35 136.59"/><polygon class="cls-7" points="109.21 131.81 112.06 129.6 112.33 125.46 109.48 127.67 109.21 131.81"/><polygon class="cls-7" points="135.37 100.73 132.07 99.81 129.5 102.5 132.79 103.42 135.37 100.73"/><polygon class="cls-7" points="139.96 95.48 136.67 94.56 134.1 97.25 137.39 98.17 139.96 95.48"/><polygon class="cls-7" points="136.08 114.14 134.28 110.63 130.92 110.3 132.72 113.81 136.08 114.14"/><polygon class="cls-7" points="95.58 112.11 98.87 113.03 101.44 110.34 98.16 109.42 95.58 112.11"/><polygon class="cls-7" points="90.99 117.36 94.28 118.28 96.85 115.59 93.56 114.67 90.99 117.36"/><polygon class="cls-7" points="94.87 98.7 96.67 102.21 100.03 102.55 98.23 99.03 94.87 98.7"/><polygon class="cls-7" points="131.42 90.7 128.13 91.63 126.75 95.42 130.04 94.5 131.42 90.7"/><polygon class="cls-7" points="133.72 83.51 130.43 84.44 129.05 88.23 132.34 87.31 133.72 83.51"/><polygon class="cls-7" points="97.23 129.33 100.52 128.4 101.89 124.61 98.61 125.53 97.23 129.33"/><polygon class="cls-7" points="102.72 86.77 103.47 90.83 106.55 92.52 105.8 88.47 102.72 86.77"/><polygon class="cls-7" points="96.88 83.94 97.64 87.99 100.72 89.69 99.97 85.63 96.88 83.94"/><polygon class="cls-7" points="134.06 128.9 133.31 124.85 130.23 123.16 130.98 127.21 134.06 128.9"/></g></g></svg>